# xmcd
#
# Track frame offsets:
#	150
#	5615
#	61492
#	85401
#	120186
#	147434
#	170097
#	247518
#
# Disc length: 3741 seconds
# Revision: 3
# Processed by: cddbd v1.5.2PL0 Copyright (c) Steve Scherf et al.
# Submitted via: dBpowerAMP V12.0
#
DISCID=610e9b08
DTITLE=SoundSleep Solutions - Sleep Advantage
DYEAR=2005
DGENRE=Speech, Meditative
TTITLE0=Introduction
TTITLE1=Speech, Meditation
TTITLE2=Mind Relaxation
TTITLE3=Floating
TTITLE4=Cloudland Canyon
TTITLE5=Starry Sea
TTITLE6=Twilight
TTITLE7=Transitions 1 (Excerpt)
EXTD=
EXTT0=
EXTT1=
EXTT2=
EXTT3=
EXTT4=
EXTT5=
EXTT6=
EXTT7=
PLAYORDER=
